<svg xmlns="http://www.w3.org/2000/svg" width="20" height="20" fill="none"><g clip-path="url(#a)"><path fill="#131313" d="m10.372 9.519 4.605-4.573a.55.55 0 0 0-.4-.91.558.558 0 0 0-.383.132L9.59 8.74 4.983 4.162a.56.56 0 0 0-.952.392c0 .147.059.288.163.392l4.611 4.573-4.61 4.573a.552.552 0 0 0-.032.809.555.555 0 0 0 .635.106.557.557 0 0 0 .18-.138l4.61-4.573 4.606 4.573a.558.558 0 0 0 .917-.397.55.55 0 0 0-.134-.38l-4.605-4.573Z"/></g><defs><clipPath id="a"><path fill="#fff" d="M0 0h20v20H0z"/></clipPath></defs></svg>