<svg width="60" height="66" viewBox="0 0 60 66" fill="none" xmlns="http://www.w3.org/2000/svg">
<path d="M29.1297 34.8412C32.0032 27.1542 26.0526 22.9465 22.1081 20.1809C21.3539 19.6159 20.5998 19.0881 19.9889 18.6049C18.8971 17.6968 18.0928 16.4987 17.6716 15.1532C17.2505 13.8076 17.2302 12.3711 17.6131 11.0146C17.6525 10.8726 17.6515 10.7227 17.6103 10.5813C17.5691 10.4399 17.4893 10.3123 17.3796 10.2126C17.2698 10.1129 17.1344 10.0448 16.988 10.0158C16.8417 9.98675 16.6901 9.99794 16.5497 10.0481C15.2214 10.5662 13.9863 11.2916 12.8919 12.1966C11.8403 12.9957 10.9884 14.0216 10.4015 15.1955C9.81447 16.3695 9.508 17.6604 9.50555 18.9692C8.76181 19.5471 8.10425 20.2253 7.55219 20.9838C6.538 22.3485 6.02951 24.0148 6.11167 25.7045C4.90361 26.7983 4.00387 28.1821 3.50025 29.7209C2.99663 31.2597 2.90634 32.9009 3.23819 34.4843C2.75759 34.7706 2.38559 35.2044 2.17931 35.7192C1.97303 36.234 1.94386 36.8013 2.09631 37.334C2.24876 37.8667 2.5744 38.3354 3.0232 38.668C3.472 39.0006 4.01915 39.1789 4.58066 39.1753H4.63346V43.5466C4.63346 43.9903 4.81223 44.4157 5.13047 44.7294C5.44871 45.0431 5.88034 45.2193 6.3304 45.2193H7.65024L9.7997 63.5818C9.84439 63.9906 10.0409 64.3686 10.3514 64.6431C10.6619 64.9176 11.0644 65.0692 11.4815 65.0687H20.4263C20.8438 65.0678 21.2463 64.9159 21.5577 64.6418C21.8691 64.3678 22.0677 63.9906 22.1157 63.5818L24.2652 45.2193H25.585C26.035 45.2193 26.4667 45.0431 26.7849 44.7294C27.1031 44.4157 27.2819 43.9903 27.2819 43.5466V39.1753H27.3347C28.0168 39.1753 28.671 38.9082 29.1533 38.4328C29.6356 37.9574 29.9065 37.3126 29.9065 36.6403C29.91 36.3047 29.845 35.9719 29.7154 35.6616C29.5859 35.3512 29.3944 35.0697 29.1523 34.8337L29.1297 34.8412ZM9.76952 20.8946C10.8556 24.9165 15.0489 26.5 18.8727 27.9125C18.9755 27.9749 19.0909 28.0142 19.2109 28.0276C19.3308 28.041 19.4523 28.0282 19.5666 27.9901C19.681 27.952 19.7855 27.8896 19.8726 27.8072C19.9597 27.7249 20.0274 27.6246 20.0707 27.5136C20.1141 27.4025 20.1321 27.2834 20.1235 27.1647C20.115 27.046 20.0799 26.9307 20.021 26.8268C19.9621 26.723 19.8807 26.6332 19.7826 26.5639C19.6845 26.4945 19.5721 26.4473 19.4534 26.4257C15.3355 24.8868 11.4514 23.452 11.1572 19.3409C11.0883 18.2108 11.3035 17.0814 11.7837 16.053C12.264 15.0245 12.9943 14.1289 13.91 13.4455C14.4837 12.975 15.0997 12.557 15.7503 12.1966C15.7084 12.7112 15.7084 13.2283 15.7503 13.7429C15.8376 14.921 16.1643 16.0697 16.7111 17.1208C17.2578 18.1719 18.0135 19.1038 18.933 19.8613C19.559 20.3891 20.3358 20.9318 21.1956 21.5116C23.1791 22.9167 25.4341 24.4853 26.8671 26.6115C27.6317 27.7019 28.1074 28.9635 28.251 30.2814C28.3945 31.5993 28.2014 32.9317 27.6892 34.1572H27.3724H24.3557C17.4849 34.1572 9.58852 32.2838 8.02733 27.0353C7.71764 25.9555 7.72016 24.8119 8.03465 23.7334C8.34915 22.655 8.96309 21.6846 9.80722 20.9318L9.76952 20.8946ZM15.9539 46.2378L18.4729 48.7209L15.9539 51.2039L13.4349 48.706L15.9539 46.2378ZM21.731 52.7576L19.6495 54.8095L17.1305 52.3264L19.6495 49.8508L21.8366 51.9993L21.731 52.7576ZM15.9539 58.4522L13.4349 55.9692L15.9539 53.4862L18.4729 55.9692L15.9539 58.4522ZM14.8 52.3413L12.281 54.8243L10.1843 52.7576L10.0938 52.0142L12.281 49.8657L14.8 52.3413ZM11.1195 55.9692L10.6142 56.4673L10.486 55.3373L11.1195 55.9692ZM10.8556 58.5117L12.281 57.1066L15.0489 59.8573C15.0631 59.9128 15.0807 59.9675 15.1017 60.0209H11.029L10.8556 58.5117ZM19.6344 57.1066L21.0598 58.5117L20.8863 59.9986H16.7006L19.6344 57.1066ZM21.2936 56.4673L20.7883 55.9692L21.4294 55.3373L21.2936 56.4673ZM22.0478 49.9698L20.7883 48.706L22.3872 47.1299L22.0478 49.9698ZM19.6269 47.576L17.236 45.2268H22.0176L19.6269 47.576ZM12.2735 47.576L9.88265 45.2268H14.6642L12.2735 47.576ZM20.4188 63.4555H11.4815C11.4681 63.4539 11.4556 63.4479 11.446 63.4384C11.4364 63.429 11.4303 63.4167 11.4287 63.4034L11.2176 61.6192H20.6903L20.4866 63.4034C20.4848 63.4179 20.4776 63.4311 20.4665 63.4407C20.4554 63.4503 20.4411 63.4556 20.4263 63.4555H20.4188ZM27.3347 37.5547H24.7101C24.5961 37.5439 24.481 37.5567 24.3722 37.5923C24.2635 37.6279 24.1635 37.6856 24.0787 37.7615C23.9939 37.8375 23.9261 37.9301 23.8797 38.0333C23.8333 38.1366 23.8094 38.2483 23.8094 38.3613C23.8094 38.4742 23.8333 38.5859 23.8797 38.6892C23.9261 38.7925 23.9939 38.8851 24.0787 38.9611C24.1635 39.037 24.2635 39.0946 24.3722 39.1303C24.481 39.1659 24.5961 39.1787 24.7101 39.1679H25.6453V43.5392C25.6435 43.5537 25.6363 43.5669 25.6252 43.5765C25.6141 43.5861 25.5998 43.5914 25.585 43.5912H6.30022C6.28544 43.5914 6.27113 43.5861 6.26001 43.5765C6.24889 43.5669 6.24174 43.5537 6.2399 43.5392V39.1679H21.1805C21.384 39.1486 21.5729 39.0553 21.7103 38.9062C21.8478 38.757 21.9239 38.5628 21.9239 38.3613C21.9239 38.1598 21.8478 37.9655 21.7103 37.8164C21.5729 37.6673 21.384 37.5739 21.1805 37.5547H4.58821C4.45885 37.5662 4.32847 37.551 4.2054 37.51C4.08233 37.4691 3.96924 37.4034 3.87337 37.317C3.7775 37.2306 3.70093 37.1255 3.64855 37.0084C3.59616 36.8912 3.5691 36.7646 3.5691 36.6365C3.5691 36.5085 3.59616 36.3819 3.64855 36.2647C3.70093 36.1476 3.7775 36.0425 3.87337 35.9561C3.96924 35.8697 4.08233 35.804 4.2054 35.7631C4.32847 35.7221 4.45885 35.7069 4.58821 35.7184H6.30022C6.50369 35.6991 6.69258 35.6058 6.83003 35.4567C6.96748 35.3076 7.04364 35.1133 7.04364 34.9118C7.04364 34.7103 6.96748 34.5161 6.83003 34.3669C6.69258 34.2178 6.50369 34.1245 6.30022 34.1052H4.79183C4.57579 32.974 4.61089 31.8102 4.89471 30.6937C5.17854 29.5772 5.70434 28.5345 6.43597 27.6374C6.96391 29.2581 8.32146 31.4735 11.7153 33.2354C14.9056 34.8784 19.1291 35.7184 24.2652 35.7184H27.2819C27.4113 35.7069 27.5417 35.7221 27.6647 35.7631C27.7878 35.804 27.9009 35.8697 27.9967 35.9561C28.0926 36.0425 28.1692 36.1476 28.2216 36.2647C28.274 36.3819 28.301 36.5085 28.301 36.6365C28.301 36.7646 28.274 36.8912 28.2216 37.0084C28.1692 37.1255 28.0926 37.2306 27.9967 37.317C27.9009 37.4034 27.7878 37.4691 27.6647 37.51C27.5417 37.551 27.4113 37.5662 27.2819 37.5547H27.3347Z" fill="#F8D24E"/>
<path d="M34.4585 59.2145L33.8644 60.1261L33.8763 60.1337L34.4585 59.2145ZM40.8546 59.5226L41.9423 59.4985L41.9143 58.2393L40.6726 58.45L40.8546 59.5226ZM40.929 62.8694L41.2059 63.9216L42.0358 63.7032L42.0167 62.8453L40.929 62.8694ZM32.5354 63.0288L32.7795 61.9686L32.7729 61.9671L32.5354 63.0288ZM28.3917 61.1801L29.0956 60.3505L29.0939 60.3491L28.3917 61.1801ZM26.8936 57.7802L27.9816 57.7856V57.7802H26.8936ZM27.4142 55.4002L26.4379 54.92L26.4372 54.9215L27.4142 55.4002ZM30.7504 52.5527L31.1364 53.57L31.1404 53.5684L30.7504 52.5527ZM41.439 52.2765L42.5237 52.361L42.5952 51.4423L41.7008 51.2205L41.439 52.2765ZM41.1733 55.6871L40.9707 56.756L42.1638 56.9821L42.258 55.7715L41.1733 55.6871ZM38.2728 54.291C36.64 54.291 35.2675 54.4654 34.2649 54.9063C33.7511 55.1322 33.2837 55.4501 32.9433 55.8991C32.5923 56.3621 32.4249 56.9017 32.4249 57.472H34.6008C34.6008 57.3447 34.6317 57.2738 34.6774 57.2136C34.7337 57.1393 34.8612 57.0211 35.1408 56.8982C35.7248 56.6414 36.7323 56.4669 38.2728 56.4669V54.291ZM32.4249 57.472C32.4249 58.5916 32.9267 59.5149 33.8644 60.126L35.0525 58.303C34.7294 58.0925 34.6008 57.8541 34.6008 57.472H32.4249ZM33.8763 60.1337C34.7653 60.6967 35.9375 60.9081 37.2528 60.9081V58.7321C36.1172 58.7321 35.4266 58.5398 35.0406 58.2954L33.8763 60.1337ZM37.2528 60.9081C38.5439 60.9081 39.8054 60.8042 41.0366 60.5953L40.6726 58.45C39.5663 58.6377 38.4267 58.7321 37.2528 58.7321V60.9081ZM39.7669 59.5468L39.8413 62.8936L42.0167 62.8453L41.9423 59.4985L39.7669 59.5468ZM40.6521 61.8173C39.4082 62.1446 38.0363 62.3127 36.5303 62.3127V64.4887C38.1976 64.4887 39.7581 64.3026 41.2059 63.9216L40.6521 61.8173ZM36.5303 62.3127C34.9935 62.3127 33.7497 62.192 32.7795 61.9686L32.2912 64.0891C33.4743 64.3615 34.8938 64.4887 36.5303 64.4887V62.3127ZM32.7729 61.9671C31.7344 61.7348 30.9844 61.488 30.4841 61.2437L29.5292 63.199C30.2473 63.5496 31.183 63.8412 32.2979 64.0906L32.7729 61.9671ZM30.4841 61.2437C29.9478 60.9818 29.4872 60.6828 29.0956 60.3505L27.6878 62.0097C28.2311 62.4707 28.8472 62.8659 29.5292 63.199L30.4841 61.2437ZM29.0939 60.3491C28.3547 59.7244 27.9759 58.9079 27.9816 57.7856L25.8056 57.7747C25.7971 59.4857 26.4171 60.9359 27.6894 62.0111L29.0939 60.3491ZM27.9816 57.7802C27.9816 57.0488 28.1251 56.422 28.3912 55.8789L26.4372 54.9215C26.0092 55.795 25.8056 56.7549 25.8056 57.7802H27.9816ZM28.3905 55.8803C28.8854 54.874 29.7594 54.0925 31.1364 53.57L30.3644 51.5355C28.5681 52.2172 27.2179 53.334 26.4379 54.92L28.3905 55.8803ZM31.1404 53.5684C32.5879 53.0127 34.2033 52.727 35.9991 52.727V50.551C33.9699 50.551 32.0861 50.8745 30.3604 51.537L31.1404 53.5684ZM35.9991 52.727C37.8305 52.727 39.5554 52.9304 41.1771 53.3325L41.7008 51.2205C39.8942 50.7726 37.9925 50.551 35.9991 50.551V52.727ZM40.3543 52.192L40.0886 55.6026L42.258 55.7715L42.5237 52.361L40.3543 52.192ZM41.376 54.6181C40.244 54.4036 39.2073 54.291 38.2728 54.291V56.4669C39.0382 56.4669 39.9352 56.5597 40.9707 56.756L41.376 54.6181ZM51.9915 56.3564L51.9855 57.4444L53.0912 57.4505L53.0795 56.3449L51.9915 56.3564ZM51.524 54.9433L50.7837 55.7407L50.7931 55.7492L51.524 54.9433ZM48.8147 55.0496L49.5682 55.8345L49.5762 55.8266L48.8147 55.0496ZM48.156 56.3352L47.0824 56.1587L46.8757 57.4161L48.1499 57.4231L48.156 56.3352ZM56.1565 62.1363L56.8137 63.0034L57.2048 62.7069L57.2414 62.2175L56.1565 62.1363ZM53.8084 63.0076L53.5745 61.945L53.5681 61.9464L53.8084 63.0076ZM45.6485 62.7101L45.2775 63.7329L45.2864 63.736L45.6485 62.7101ZM43.7892 61.722L43.1139 62.575L43.1204 62.5801L43.127 62.5852L43.7892 61.722ZM42.5461 60.1601L41.5708 60.6424L41.573 60.6467L42.5461 60.1601ZM43.821 53.5621L44.5446 54.3747L44.5451 54.3742L43.821 53.5621ZM53.7659 52.3827L54.201 51.3855L54.1908 51.3812L53.7659 52.3827ZM56.2627 54.6777L55.2842 55.1534L55.2872 55.1594L56.2627 54.6777ZM56.6877 56.5796L57.7728 56.6585L57.7757 56.6191V56.5796H56.6877ZM56.5602 58.3326L56.5548 59.4206L57.5716 59.4256L57.6453 58.4116L56.5602 58.3326ZM47.9435 58.2901L47.9488 57.2022L46.5295 57.1952L46.8915 58.5676L47.9435 58.2901ZM49.176 59.8095L48.6406 60.7567L48.645 60.7591L49.176 59.8095ZM55.7846 59.4376V58.3496H55.5672L55.3665 58.4332L55.7846 59.4376ZM56.3583 59.4376L57.4433 59.5188L57.5307 58.3496H56.3583V59.4376ZM53.0795 56.3449C53.0711 55.5579 52.8902 54.7136 52.255 54.1374L50.7931 55.7492C50.7803 55.7376 50.8053 55.7515 50.8364 55.8455C50.8694 55.9451 50.9009 56.1115 50.9036 56.368L53.0795 56.3449ZM52.2644 54.1461C51.6934 53.6159 50.9443 53.441 50.2066 53.441V55.6169C50.6305 55.6169 50.7597 55.7183 50.7837 55.7406L52.2644 54.1461ZM50.2066 53.441C49.3963 53.441 48.6428 53.6948 48.0532 54.2725L49.5762 55.8266C49.695 55.7102 49.8693 55.6169 50.2066 55.6169V53.441ZM48.0613 54.2647C47.5257 54.7789 47.2028 55.4262 47.0824 56.1587L49.2295 56.5117C49.2791 56.21 49.3954 56.0003 49.5682 55.8344L48.0613 54.2647ZM48.1499 57.4231L51.9855 57.4444L51.9976 55.2685L48.162 55.2472L48.1499 57.4231ZM55.4992 61.2693C55.2607 61.4501 54.679 61.7019 53.5745 61.945L54.0423 64.0701C55.1902 63.8174 56.1739 63.4884 56.8137 63.0034L55.4992 61.2693ZM53.5681 61.9464C52.514 62.1851 51.5003 62.3021 50.5253 62.3021V64.478C51.6753 64.478 52.8503 64.34 54.0486 64.0687L53.5681 61.9464ZM50.5253 62.3021C49.5001 62.3021 48.6556 62.2537 47.9824 62.1631L47.6921 64.3196C48.4921 64.4273 49.4397 64.478 50.5253 64.478V62.3021ZM47.9824 62.1631C47.3219 62.0741 46.6649 61.9151 46.0106 61.6841L45.2864 63.736C46.0771 64.0151 46.8793 64.2102 47.6921 64.3196L47.9824 62.1631ZM46.0195 61.6873C45.3834 61.4566 44.8659 61.1767 44.4514 60.8587L43.127 62.5852C43.7466 63.0605 44.4686 63.4394 45.2775 63.7328L46.0195 61.6873ZM44.4645 60.8689C44.091 60.5732 43.7736 60.1824 43.5192 59.6736L41.573 60.6467C41.956 61.4128 42.4674 62.0632 43.1139 62.575L44.4645 60.8689ZM43.5213 59.6778C43.2924 59.215 43.1559 58.6192 43.1559 57.8545H40.98C40.98 58.8748 41.1622 59.8161 41.5708 60.6424L43.5213 59.6778ZM43.1559 57.8545C43.1559 57.0891 43.2939 56.4132 43.5548 55.8121L41.5586 54.9458C41.1679 55.8463 40.98 56.8208 40.98 57.8545H43.1559ZM43.5548 55.8121C43.829 55.18 44.165 54.7126 44.5446 54.3747L43.0975 52.7495C42.4429 53.3324 41.936 54.0762 41.5586 54.9458L43.5548 55.8121ZM44.5451 54.3742C45.7144 53.3316 47.4982 52.727 50.0684 52.727V50.551C47.1847 50.551 44.8035 51.2285 43.097 52.75L44.5451 54.3742ZM50.0684 52.727C51.2218 52.727 52.3095 52.9467 53.341 53.3843L54.1908 51.3812C52.8848 50.8271 51.5075 50.551 50.0684 50.551V52.727ZM53.3307 53.3799C54.2935 53.8001 54.9158 54.3955 55.2842 55.1534L57.2412 54.2021C56.618 52.9199 55.5757 51.9854 54.201 51.3856L53.3307 53.3799ZM55.2872 55.1594C55.4904 55.5709 55.5997 56.038 55.5997 56.5796H57.7757C57.7757 55.7327 57.6017 54.932 57.2382 54.196L55.2872 55.1594ZM55.6026 56.5006L55.4751 58.2537L57.6453 58.4116L57.7728 56.6585L55.6026 56.5006ZM56.5656 57.2447L47.9488 57.2022L47.9381 59.3781L56.5548 59.4206L56.5656 57.2447ZM46.8915 58.5676C47.1458 59.5321 47.7679 60.2634 48.6406 60.7567L49.7113 58.8623C49.2807 58.619 49.0811 58.3374 48.9955 58.0127L46.8915 58.5676ZM48.645 60.7591C49.5274 61.2525 50.6309 61.45 51.864 61.45V59.274C50.8306 59.274 50.142 59.1031 49.7069 58.8599L48.645 60.7591ZM51.864 61.45C53.1873 61.45 54.6407 61.0923 56.2027 60.4421L55.3665 58.4332C53.9677 59.0155 52.8074 59.274 51.864 59.274V61.45ZM55.7846 60.5256H56.3583V58.3496H55.7846V60.5256ZM55.2734 59.3565L55.0715 62.0552L57.2414 62.2175L57.4433 59.5188L55.2734 59.3565Z" fill="#F8D24E"/>
</svg>
