<svg width="48" height="45" viewBox="0 0 48 45" fill="none" xmlns="http://www.w3.org/2000/svg">
<path d="M23.7038 19.9247C26.0025 13.7591 21.2421 10.3841 18.0865 8.16595C17.4832 7.71277 16.8798 7.28941 16.3911 6.90183C15.5176 6.17346 14.8742 5.21252 14.5373 4.13327C14.2004 3.05402 14.1841 1.90186 14.4905 0.813754C14.522 0.699909 14.5212 0.579702 14.4883 0.466265C14.4553 0.352829 14.3914 0.250524 14.3036 0.170525C14.2158 0.0905255 14.1075 0.0359104 13.9904 0.0126413C13.8733 -0.0106278 13.752 -0.00165465 13.6398 0.0385814C12.5771 0.454105 11.589 1.03597 10.7135 1.76185C9.87228 2.40281 9.19075 3.22564 8.72116 4.16725C8.25157 5.10886 8.0064 6.14424 8.00444 7.19401C7.40945 7.65757 6.8834 8.20154 6.44175 8.80994C5.6304 9.90451 5.22361 11.2411 5.28934 12.5963C4.32289 13.4736 3.6031 14.5836 3.2002 15.8178C2.79731 17.052 2.72507 18.3684 2.99055 19.6385C2.60607 19.8681 2.30847 20.216 2.14345 20.6289C1.97842 21.0418 1.95509 21.4969 2.07705 21.9241C2.19901 22.3514 2.45952 22.7273 2.81856 22.9941C3.1776 23.2609 3.61532 23.4039 4.06453 23.401H4.10677V26.9072C4.10677 27.263 4.24978 27.6043 4.50437 27.8559C4.75897 28.1075 5.10427 28.2488 5.46432 28.2488H6.52019L8.23976 42.9771C8.27551 43.305 8.43271 43.6082 8.68112 43.8283C8.92952 44.0485 9.25156 44.1701 9.58523 44.1697H16.741C17.075 44.1689 17.3971 44.0471 17.6462 43.8273C17.8953 43.6075 18.0541 43.3049 18.0926 42.9771L19.8121 28.2488H20.868C21.228 28.2488 21.5733 28.1075 21.8279 27.8559C22.0825 27.6043 22.2255 27.263 22.2255 26.9072V23.401H22.2678C22.8135 23.401 23.3368 23.1868 23.7226 22.8055C24.1085 22.4242 24.3252 21.907 24.3252 21.3677C24.328 21.0986 24.276 20.8316 24.1723 20.5827C24.0687 20.3338 23.9155 20.108 23.7219 19.9187L23.7038 19.9247ZM8.21562 8.73838C9.08445 11.9643 12.4391 13.2344 15.4981 14.3673C15.5804 14.4173 15.6728 14.4489 15.7687 14.4596C15.8647 14.4704 15.9618 14.4601 16.0533 14.4296C16.1448 14.399 16.2284 14.349 16.2981 14.2829C16.3678 14.2168 16.4219 14.1364 16.4566 14.0473C16.4913 13.9583 16.5057 13.8627 16.4988 13.7675C16.492 13.6723 16.464 13.5798 16.4168 13.4965C16.3697 13.4132 16.3045 13.3412 16.226 13.2856C16.1476 13.23 16.0577 13.1921 15.9627 13.1747C12.6684 11.9404 9.5611 10.7896 9.32579 7.49215C9.27065 6.58572 9.44282 5.67986 9.82699 4.85498C10.2112 4.0301 10.7955 3.31172 11.528 2.76361C11.987 2.38622 12.4797 2.05091 13.0002 1.76185C12.9667 2.17461 12.9667 2.58936 13.0002 3.00212C13.0701 3.94703 13.3314 4.86841 13.7689 5.71147C14.2063 6.55452 14.8108 7.30203 15.5464 7.90955C16.0472 8.33291 16.6686 8.7682 17.3565 9.2333C18.9433 10.3603 20.7473 11.6184 21.8937 13.3238C22.5053 14.1984 22.8859 15.2103 23.0008 16.2674C23.1156 17.3244 22.9611 18.3931 22.5513 19.3761H22.2979H19.8845C14.3879 19.3761 8.07081 17.8735 6.82187 13.6637C6.57411 12.7976 6.57613 11.8804 6.82772 11.0154C7.07932 10.1504 7.57047 9.37205 8.24578 8.7682L8.21562 8.73838ZM13.1631 29.0657L15.1784 31.0573L13.1631 33.0489L11.1479 31.0454L13.1631 29.0657ZM17.7848 34.2952L16.1196 35.9409L14.1044 33.9493L16.1196 31.9637L17.8693 33.687L17.7848 34.2952ZM13.1631 38.8627L11.1479 36.8711L13.1631 34.8795L15.1784 36.8711L13.1631 38.8627ZM12.24 33.9613L10.2248 35.9528L8.54746 34.2952L8.47506 33.6989L10.2248 31.9756L12.24 33.9613ZM9.29563 36.8711L8.89137 37.2706L8.7888 36.3643L9.29563 36.8711ZM9.08445 38.9104L10.2248 37.7834L12.4391 39.9897C12.4504 40.0342 12.4646 40.0781 12.4813 40.1209H9.22321L9.08445 38.9104ZM16.1075 37.7834L17.2479 38.9104L17.1091 40.103H13.7605L16.1075 37.7834ZM17.4349 37.2706L17.0306 36.8711L17.5435 36.3643L17.4349 37.2706ZM18.0383 32.0591L17.0306 31.0454L18.3098 29.7813L18.0383 32.0591ZM16.1015 30.1391L14.1888 28.2548H18.0141L16.1015 30.1391ZM10.2188 30.1391L8.30612 28.2548H12.1314L10.2188 30.1391ZM16.735 42.8757H9.58523C9.57447 42.8745 9.56446 42.8697 9.5568 42.8621C9.54914 42.8545 9.54427 42.8446 9.54299 42.834L9.37405 41.4029H16.9522L16.7893 42.834C16.7878 42.8456 16.7821 42.8562 16.7732 42.8639C16.7643 42.8716 16.7529 42.8758 16.741 42.8757H16.735ZM22.2678 22.1011H20.1681C20.0768 22.0925 19.9848 22.1028 19.8978 22.1313C19.8108 22.1599 19.7308 22.2061 19.6629 22.267C19.5951 22.328 19.5409 22.4022 19.5038 22.4851C19.4667 22.5679 19.4475 22.6575 19.4475 22.7481C19.4475 22.8387 19.4667 22.9283 19.5038 23.0111C19.5409 23.094 19.5951 23.1683 19.6629 23.2292C19.7308 23.2901 19.8108 23.3363 19.8978 23.3649C19.9848 23.3935 20.0768 23.4037 20.1681 23.3951H20.9163V26.9012C20.9148 26.9128 20.9091 26.9235 20.9002 26.9312C20.8913 26.9389 20.8798 26.9431 20.868 26.943H5.44018C5.42836 26.9431 5.41691 26.9389 5.40801 26.9312C5.39911 26.9235 5.39339 26.9128 5.39192 26.9012V23.3951H17.3444C17.5072 23.3796 17.6583 23.3048 17.7682 23.1852C17.8782 23.0655 17.9391 22.9097 17.9391 22.7481C17.9391 22.5865 17.8782 22.4307 17.7682 22.3111C17.6583 22.1914 17.5072 22.1166 17.3444 22.1011H4.07057C3.96708 22.1104 3.86278 22.0982 3.76432 22.0653C3.66586 22.0325 3.57539 21.9798 3.4987 21.9105C3.422 21.8412 3.36075 21.7569 3.31884 21.663C3.27693 21.569 3.25528 21.4674 3.25528 21.3647C3.25528 21.262 3.27693 21.1605 3.31884 21.0665C3.36075 20.9725 3.422 20.8882 3.4987 20.8189C3.57539 20.7497 3.66586 20.6969 3.76432 20.6641C3.86278 20.6313 3.96708 20.6191 4.07057 20.6283H5.44018C5.60296 20.6129 5.75406 20.538 5.86403 20.4184C5.97399 20.2988 6.03492 20.143 6.03492 19.9813C6.03492 19.8197 5.97399 19.6639 5.86403 19.5443C5.75406 19.4247 5.60296 19.3498 5.44018 19.3344H4.23346C4.06063 18.4271 4.08871 17.4936 4.31577 16.5981C4.54283 15.7025 4.96347 14.8662 5.54878 14.1467C5.97113 15.4466 7.05717 17.2235 9.77227 18.6367C12.3245 19.9545 15.7033 20.6283 19.8121 20.6283H22.2255C22.329 20.6191 22.4333 20.6313 22.5318 20.6641C22.6302 20.6969 22.7207 20.7497 22.7974 20.8189C22.8741 20.8882 22.9354 20.9725 22.9773 21.0665C23.0192 21.1605 23.0408 21.262 23.0408 21.3647C23.0408 21.4674 23.0192 21.569 22.9773 21.663C22.9354 21.7569 22.8741 21.8412 22.7974 21.9105C22.7207 21.9798 22.6302 22.0325 22.5318 22.0653C22.4333 22.0982 22.329 22.1104 22.2255 22.1011H22.2678Z" fill="#F8D24E"/>
<path d="M27.8677 39.2557L27.3848 39.9966L27.3945 40.0028L27.8677 39.2557ZM33.0669 39.5061L33.951 39.4865L33.9283 38.4629L32.9189 38.6342L33.0669 39.5061ZM33.1273 42.2266L33.3524 43.0818L34.027 42.9043L34.0115 42.2069L33.1273 42.2266ZM26.3045 42.3561L26.503 41.4943L26.4976 41.4931L26.3045 42.3561ZM22.9363 40.8534L23.5085 40.1791L23.5071 40.1779L22.9363 40.8534ZM21.7186 38.0897L22.6029 38.0942V38.0897H21.7186ZM22.1418 36.1552L21.3482 35.7649L21.3476 35.766L22.1418 36.1552ZM24.8536 33.8406L25.1674 34.6674L25.1706 34.6662L24.8536 33.8406ZM33.5419 33.6161L34.4236 33.6847L34.4817 32.9379L33.7547 32.7577L33.5419 33.6161ZM33.326 36.3884L33.1613 37.2573L34.131 37.4411L34.2077 36.457L33.326 36.3884ZM30.9682 35.2535C29.641 35.2535 28.5254 35.3953 27.7104 35.7537C27.2928 35.9373 26.9128 36.1957 26.6361 36.5607C26.3508 36.937 26.2147 37.3757 26.2147 37.8393H27.9835C27.9835 37.7357 28.0085 37.6782 28.0457 37.6292C28.0915 37.5688 28.1951 37.4727 28.4224 37.3728C28.8971 37.1641 29.716 37.0223 30.9682 37.0223V35.2535ZM26.2147 37.8393C26.2147 38.7493 26.6226 39.4998 27.3849 39.9966L28.3506 38.5147C28.088 38.3436 27.9835 38.1498 27.9835 37.8393H26.2147ZM27.3945 40.0028C28.1172 40.4604 29.07 40.6323 30.1391 40.6323V38.8636C29.2161 38.8636 28.6547 38.7072 28.3409 38.5085L27.3945 40.0028ZM30.1391 40.6323C31.1886 40.6323 32.214 40.5478 33.2148 40.378L32.9189 38.6342C32.0197 38.7868 31.0933 38.8636 30.1391 38.8636V40.6323ZM32.1827 39.5258L32.2432 42.2462L34.0115 42.2069L33.951 39.4865L32.1827 39.5258ZM32.9023 41.3713C31.8912 41.6374 30.776 41.774 29.5518 41.774V43.5428C30.9071 43.5428 32.1756 43.3915 33.3524 43.0818L32.9023 41.3713ZM29.5518 41.774C28.3026 41.774 27.2916 41.6759 26.503 41.4943L26.1061 43.218C27.0677 43.4394 28.2216 43.5428 29.5518 43.5428V41.774ZM26.4976 41.4931C25.6535 41.3043 25.0438 41.1037 24.6372 40.9051L23.861 42.4944C24.4446 42.7795 25.2053 43.0165 26.1115 43.2192L26.4976 41.4931ZM24.6372 40.9051C24.2012 40.6922 23.8268 40.4492 23.5085 40.1791L22.3641 41.5277C22.8058 41.9025 23.3066 42.2237 23.861 42.4944L24.6372 40.9051ZM23.5071 40.1779C22.9062 39.6701 22.5984 39.0064 22.6029 38.0942L20.8342 38.0853C20.8273 39.4761 21.3312 40.6549 22.3655 41.5289L23.5071 40.1779ZM22.6029 38.0897C22.6029 37.4952 22.7196 36.9858 22.9359 36.5443L21.3476 35.766C20.9997 36.4761 20.8342 37.2564 20.8342 38.0897H22.6029ZM22.9354 36.5455C23.3377 35.7274 24.0481 35.0922 25.1674 34.6674L24.5399 33.0138C23.0797 33.5678 21.9822 34.4756 21.3482 35.7649L22.9354 36.5455ZM25.1706 34.6662C26.3473 34.2145 27.6603 33.9822 29.12 33.9822V32.2135C27.4706 32.2135 25.9394 32.4764 24.5366 33.015L25.1706 34.6662ZM29.12 33.9822C30.6087 33.9822 32.0108 34.1476 33.3291 34.4744L33.7547 32.7577C32.2862 32.3936 30.7404 32.2135 29.12 32.2135V33.9822ZM32.6602 33.5474L32.4443 36.3197L34.2077 36.457L34.4236 33.6847L32.6602 33.5474ZM33.4907 35.5195C32.5705 35.345 31.7279 35.2535 30.9682 35.2535V37.0223C31.5904 37.0223 32.3196 37.0977 33.1613 37.2573L33.4907 35.5195ZM42.1196 36.9324L42.1147 37.8168L43.0135 37.8218L43.0039 36.923L42.1196 36.9324ZM41.7396 35.7838L41.1378 36.4319L41.1455 36.4389L41.7396 35.7838ZM39.5373 35.8702L40.1498 36.5082L40.1563 36.5018L39.5373 35.8702ZM39.0018 36.9152L38.1292 36.7717L37.9612 37.7938L38.9969 37.7995L39.0018 36.9152ZM45.5051 41.6307L46.0393 42.3354L46.3572 42.0945L46.387 41.6966L45.5051 41.6307ZM43.5964 42.3389L43.4063 41.4752L43.4011 41.4763L43.5964 42.3389ZM36.9636 42.097L36.6621 42.9284L36.6693 42.931L36.9636 42.097ZM35.4523 41.2939L34.9033 41.9873L34.914 41.9955L35.4523 41.2939ZM34.4418 40.0243L33.649 40.4163L33.6508 40.4198L34.4418 40.0243ZM35.4782 34.6611L36.0663 35.3216L36.0667 35.3212L35.4782 34.6611ZM43.5619 33.7024L43.9156 32.8918L43.9073 32.8883L43.5619 33.7024ZM45.5915 35.5679L44.7961 35.9545L44.7985 35.9595L45.5915 35.5679ZM45.9369 37.1138L46.819 37.178L46.8213 37.1459V37.1138H45.9369ZM45.8333 38.5388L45.8289 39.4232L46.6554 39.4273L46.7153 38.603L45.8333 38.5388ZM38.8291 38.5043L38.8335 37.6199L37.6798 37.6142L37.974 38.7298L38.8291 38.5043ZM39.8309 39.7393L39.3958 40.5092L39.3993 40.5112L39.8309 39.7393ZM45.2028 39.437V38.5526H45.0261L44.8629 38.6206L45.2028 39.437ZM45.6692 39.437L46.5511 39.503L46.6222 38.5526H45.6692V39.437ZM43.0039 36.923C42.9971 36.2833 42.8501 35.597 42.3337 35.1287L41.1455 36.4389C41.135 36.4294 41.1554 36.4407 41.1807 36.5171C41.2074 36.5981 41.2331 36.7334 41.2353 36.9419L43.0039 36.923ZM42.3414 35.1357C41.8772 34.7048 41.2683 34.5626 40.6687 34.5626V36.3314C41.0133 36.3314 41.1183 36.4137 41.1378 36.4319L42.3414 35.1357ZM40.6687 34.5626C40.0101 34.5626 39.3975 34.7689 38.9183 35.2385L40.1563 36.5018C40.2528 36.4072 40.3945 36.3314 40.6687 36.3314V34.5626ZM38.9248 35.2322C38.4895 35.6501 38.2271 36.1763 38.1292 36.7717L39.8745 37.0586C39.9148 36.8134 40.0093 36.6429 40.1498 36.5081L38.9248 35.2322ZM38.9969 37.7995L42.1147 37.8168L42.1245 36.0481L39.0067 36.0308L38.9969 37.7995ZM44.9708 40.9259C44.777 41.0729 44.3041 41.2775 43.4063 41.4752L43.7866 43.2026C44.7197 42.9972 45.5193 42.7297 46.0393 42.3354L44.9708 40.9259ZM43.4011 41.4763C42.5443 41.6703 41.7203 41.7654 40.9278 41.7654V43.5342C41.8625 43.5342 42.8177 43.4219 43.7917 43.2014L43.4011 41.4763ZM40.9278 41.7654C40.0944 41.7654 39.408 41.7261 38.8607 41.6524L38.6248 43.4053C39.2751 43.4929 40.0454 43.5342 40.9278 43.5342V41.7654ZM38.8607 41.6524C38.3238 41.5801 37.7898 41.4508 37.258 41.2631L36.6693 42.931C37.312 43.1578 37.9641 43.3164 38.6248 43.4053L38.8607 41.6524ZM37.2652 41.2657C36.7482 41.0781 36.3275 40.8507 35.9905 40.5922L34.914 41.9955C35.4176 42.3819 36.0045 42.6899 36.6621 42.9284L37.2652 41.2657ZM36.0012 40.6005C35.6976 40.3601 35.4396 40.0424 35.2328 39.6288L33.6508 40.4198C33.9622 41.0426 34.3779 41.5712 34.9033 41.9872L36.0012 40.6005ZM35.2345 39.6323C35.0485 39.2561 34.9375 38.7718 34.9375 38.1502H33.1688C33.1688 38.9795 33.3169 39.7447 33.6491 40.4163L35.2345 39.6323ZM34.9375 38.1502C34.9375 37.528 35.0497 36.9786 35.2617 36.49L33.6392 35.7858C33.3215 36.5178 33.1688 37.3099 33.1688 38.1502H34.9375ZM35.2617 36.49C35.4847 35.9762 35.7578 35.5963 36.0663 35.3216L34.8901 34.0006C34.358 34.4744 33.9459 35.079 33.6392 35.7858L35.2617 36.49ZM36.0667 35.3212C37.0172 34.4737 38.4671 33.9822 40.5564 33.9822V32.2135C38.2123 32.2135 36.2767 32.7642 34.8896 34.001L36.0667 35.3212ZM40.5564 33.9822C41.4939 33.9822 42.3781 34.1609 43.2165 34.5166L43.9073 32.8883C42.8457 32.4379 41.7262 32.2135 40.5564 32.2135V33.9822ZM43.2082 34.513C43.9908 34.8545 44.4966 35.3385 44.7961 35.9545L46.3868 35.1812C45.8802 34.1391 45.033 33.3795 43.9156 32.8919L43.2082 34.513ZM44.7985 35.9595C44.9637 36.294 45.0525 36.6736 45.0525 37.1138H46.8213C46.8213 36.4255 46.6798 35.7746 46.3844 35.1763L44.7985 35.9595ZM45.0549 37.0497L44.9512 38.4747L46.7153 38.603L46.819 37.178L45.0549 37.0497ZM45.8376 37.6545L38.8335 37.6199L38.8248 39.3886L45.8289 39.4232L45.8376 37.6545ZM37.974 38.7298C38.1807 39.5138 38.6864 40.1082 39.3958 40.5092L40.2661 38.9694C39.9161 38.7716 39.7539 38.5427 39.6842 38.2788L37.974 38.7298ZM39.3993 40.5112C40.1166 40.9123 41.0136 41.0728 42.016 41.0728V39.304C41.1759 39.304 40.6162 39.1651 40.2625 38.9674L39.3993 40.5112ZM42.016 41.0728C43.0916 41.0728 44.273 40.782 45.5427 40.2535L44.8629 38.6206C43.7259 39.0939 42.7828 39.304 42.016 39.304V41.0728ZM45.2028 40.3214H45.6692V38.5526H45.2028V40.3214ZM44.7873 39.371L44.6232 41.5647L46.387 41.6966L46.5511 39.503L44.7873 39.371Z" fill="#F8D24E"/>
</svg>
