<svg width="20" height="20" viewBox="0 0 20 20" fill="none" xmlns="http://www.w3.org/2000/svg">
<g clip-path="url(#clip0_10674_17376)">
<path d="M10.372 9.51857L14.9775 4.94555C15.0685 4.84002 15.1161 4.70428 15.1107 4.56544C15.1053 4.42661 15.0473 4.29491 14.9484 4.19667C14.8495 4.09843 14.7168 4.04088 14.577 4.03551C14.4372 4.03015 14.3005 4.07737 14.1942 4.16775L9.58863 8.74077L4.98308 4.16223C4.87847 4.05836 4.73658 4 4.58864 4C4.44069 4 4.2988 4.05836 4.19419 4.16223C4.08958 4.2661 4.03081 4.40699 4.03081 4.55389C4.03081 4.70079 4.08958 4.84167 4.19419 4.94555L8.8053 9.51857L4.19419 14.0916C4.13603 14.141 4.0888 14.2019 4.05545 14.2703C4.02211 14.3388 4.00337 14.4133 4.00041 14.4893C3.99746 14.5653 4.01035 14.641 4.03828 14.7118C4.06621 14.7826 4.10858 14.8469 4.16272 14.9006C4.21686 14.9544 4.28161 14.9965 4.3529 15.0242C4.42419 15.0519 4.50049 15.0647 4.577 15.0618C4.65351 15.0589 4.72858 15.0403 4.79751 15.0072C4.86643 14.974 4.92772 14.9271 4.97752 14.8694L9.58863 10.2964L14.1942 14.8694C14.3005 14.9598 14.4372 15.007 14.577 15.0016C14.7168 14.9963 14.8495 14.9387 14.9484 14.8405C15.0473 14.7422 15.1053 14.6105 15.1107 14.4717C15.1161 14.3329 15.0685 14.1971 14.9775 14.0916L10.372 9.51857Z" fill="#131313"/>
</g>
<defs>
<clipPath id="clip0_10674_17376">
<rect width="20" height="20" fill="white"/>
</clipPath>
</defs>
</svg>
