<svg width="24" height="24" viewBox="0 0 24 24" fill="none" xmlns="http://www.w3.org/2000/svg">
<g clip-path="url(#clip0_10674_17411)">
<path d="M12.6464 11.6694L18.173 6.14273C18.2822 6.01519 18.3393 5.85114 18.3328 5.68336C18.3264 5.51557 18.2568 5.35642 18.1381 5.23769C18.0193 5.11896 17.8602 5.0494 17.6924 5.04292C17.5246 5.03644 17.3606 5.09351 17.233 5.20273L11.7064 10.7294L6.1797 5.19606C6.05416 5.07053 5.8839 5 5.70636 5C5.52883 5 5.35856 5.07053 5.23303 5.19606C5.10749 5.3216 5.03697 5.49186 5.03697 5.66939C5.03697 5.84693 5.10749 6.01719 5.23303 6.14273L10.7664 11.6694L5.23303 17.1961C5.16324 17.2558 5.10656 17.3294 5.06655 17.4121C5.02653 17.4948 5.00404 17.5849 5.0005 17.6767C4.99695 17.7685 5.01242 17.8601 5.04594 17.9456C5.07945 18.0312 5.13029 18.1089 5.19526 18.1738C5.26023 18.2388 5.33793 18.2896 5.42348 18.3232C5.50903 18.3567 5.60059 18.3721 5.6924 18.3686C5.78421 18.365 5.8743 18.3426 5.95701 18.3025C6.03972 18.2625 6.11326 18.2058 6.17303 18.1361L11.7064 12.6094L17.233 18.1361C17.3606 18.2453 17.5246 18.3023 17.6924 18.2959C17.8602 18.2894 18.0193 18.2198 18.1381 18.1011C18.2568 17.9824 18.3264 17.8232 18.3328 17.6554C18.3393 17.4876 18.2822 17.3236 18.173 17.1961L12.6464 11.6694Z" fill="#131313"/>
</g>
<defs>
<clipPath id="clip0_10674_17411">
<rect width="24" height="24" fill="white"/>
</clipPath>
</defs>
</svg>
